<mxfile host="app.diagrams.net" modified="2020-12-23T02:55:11.551Z" agent="5.0 (Windows NT 10.0; Win64; x64) AppleWebKit/537.36 (KHTML, like Gecko) Chrome/87.0.4280.88 Safari/537.36" etag="y4wRk6ofeWNJOIlBdujZ" version="14.0.5" type="github">
  <diagram name="Page-1" id="e7e014a7-5840-1c2e-5031-d8a46d1fe8dd">
    <mxGraphModel dx="2899" dy="897" grid="1" gridSize="10" guides="1" tooltips="1" connect="1" arrows="1" fold="1" page="1" pageScale="1" pageWidth="1169" pageHeight="826" background="#ffffff" math="0" shadow="0">
      <root>
        <mxCell id="0" />
        <mxCell id="1" parent="0" />
        <mxCell id="2" value="WEB Client" style="swimlane;whiteSpace=wrap;fillColor=#f8cecc;strokeColor=#b85450;" parent="1" vertex="1">
          <mxGeometry x="-80" y="130" width="474.5" height="2920" as="geometry" />
        </mxCell>
        <mxCell id="5" value="" style="ellipse;shape=startState;fillColor=#000000;strokeColor=#ff0000;" parent="2" vertex="1">
          <mxGeometry x="290" y="40" width="30" height="30" as="geometry" />
        </mxCell>
        <mxCell id="6" value="" style="edgeStyle=elbowEdgeStyle;elbow=horizontal;verticalAlign=bottom;endArrow=open;endSize=8;strokeColor=#FF0000;endFill=1;rounded=0;entryX=0.5;entryY=0;entryDx=0;entryDy=0;" parent="2" source="5" target="LwK9mLRY7cPpOhZQMhh7-83" edge="1">
          <mxGeometry x="200" y="40" as="geometry">
            <mxPoint x="215" y="110" as="targetPoint" />
          </mxGeometry>
        </mxCell>
        <mxCell id="LwK9mLRY7cPpOhZQMhh7-86" style="edgeStyle=orthogonalEdgeStyle;rounded=0;orthogonalLoop=1;jettySize=auto;html=1;exitX=0;exitY=0.5;exitDx=0;exitDy=0;startArrow=classic;startFill=1;" edge="1" parent="2" source="7">
          <mxGeometry relative="1" as="geometry">
            <mxPoint x="-360" y="160" as="targetPoint" />
          </mxGeometry>
        </mxCell>
        <mxCell id="7" value="连接到本地服务&#xa;" style="fillColor=#FFFFC0;strokeColor=#FF0000;" parent="2" vertex="1">
          <mxGeometry x="130" y="135" width="110" height="50" as="geometry" />
        </mxCell>
        <mxCell id="8" value="获取USB KEY信息" style="fillColor=#FFFFC0;strokeColor=#FF0000;" parent="2" vertex="1">
          <mxGeometry x="130" y="220" width="110" height="50" as="geometry" />
        </mxCell>
        <mxCell id="9" value="" style="endArrow=open;strokeColor=#FF0000;endFill=1;rounded=0;entryX=0.5;entryY=0;entryDx=0;entryDy=0;" parent="2" source="7" target="8" edge="1">
          <mxGeometry relative="1" as="geometry" />
        </mxCell>
        <mxCell id="10" value="USB KEY 加密信息" style="fillColor=#FFFFC0;strokeColor=#FF0000;" parent="2" vertex="1">
          <mxGeometry x="130" y="362" width="110" height="50" as="geometry" />
        </mxCell>
        <mxCell id="11" value="" style="endArrow=open;strokeColor=#FF0000;endFill=1;rounded=0" parent="2" source="8" target="10" edge="1">
          <mxGeometry relative="1" as="geometry" />
        </mxCell>
        <mxCell id="LwK9mLRY7cPpOhZQMhh7-80" value="打开网页" style="text;html=1;align=center;verticalAlign=middle;resizable=0;points=[];autosize=1;" vertex="1" parent="2">
          <mxGeometry x="220" y="45" width="60" height="20" as="geometry" />
        </mxCell>
        <mxCell id="LwK9mLRY7cPpOhZQMhh7-92" style="edgeStyle=orthogonalEdgeStyle;rounded=0;orthogonalLoop=1;jettySize=auto;html=1;entryX=0.5;entryY=0;entryDx=0;entryDy=0;" edge="1" parent="2" source="LwK9mLRY7cPpOhZQMhh7-82" target="LwK9mLRY7cPpOhZQMhh7-44">
          <mxGeometry relative="1" as="geometry" />
        </mxCell>
        <mxCell id="LwK9mLRY7cPpOhZQMhh7-82" value="" style="shape=line;strokeWidth=6;strokeColor=#ff0000;rotation=90;direction=south;" vertex="1" parent="2">
          <mxGeometry x="229.75" y="470" width="15" height="130" as="geometry" />
        </mxCell>
        <mxCell id="LwK9mLRY7cPpOhZQMhh7-84" style="edgeStyle=orthogonalEdgeStyle;rounded=0;orthogonalLoop=1;jettySize=auto;html=1;exitX=0.5;exitY=1;exitDx=0;exitDy=0;entryX=0.25;entryY=0.5;entryDx=0;entryDy=0;entryPerimeter=0;" edge="1" parent="2" source="LwK9mLRY7cPpOhZQMhh7-83" target="LwK9mLRY7cPpOhZQMhh7-82">
          <mxGeometry relative="1" as="geometry">
            <mxPoint x="280" y="530" as="targetPoint" />
          </mxGeometry>
        </mxCell>
        <mxCell id="LwK9mLRY7cPpOhZQMhh7-83" value="获取用户名密码" style="fillColor=#FFFFC0;strokeColor=#FF0000;" vertex="1" parent="2">
          <mxGeometry x="250" y="135" width="110" height="50" as="geometry" />
        </mxCell>
        <mxCell id="LwK9mLRY7cPpOhZQMhh7-136" style="edgeStyle=orthogonalEdgeStyle;rounded=0;orthogonalLoop=1;jettySize=auto;html=1;entryX=0.5;entryY=0;entryDx=0;entryDy=0;startArrow=none;startFill=0;" edge="1" parent="2" source="LwK9mLRY7cPpOhZQMhh7-44" target="LwK9mLRY7cPpOhZQMhh7-93">
          <mxGeometry relative="1" as="geometry" />
        </mxCell>
        <mxCell id="LwK9mLRY7cPpOhZQMhh7-44" value="用户名密码&#xa;USB KEY 加密信息" style="strokeColor=#FF0000;fillColor=#FFFFC0;" vertex="1" parent="2">
          <mxGeometry x="182.5" y="610" width="110" height="40" as="geometry" />
        </mxCell>
        <mxCell id="LwK9mLRY7cPpOhZQMhh7-93" value="登入请求" style="fillColor=#FFFFC0;strokeColor=#FF0000;" vertex="1" parent="2">
          <mxGeometry x="182.25" y="710" width="110" height="50" as="geometry" />
        </mxCell>
        <mxCell id="LwK9mLRY7cPpOhZQMhh7-91" style="edgeStyle=orthogonalEdgeStyle;rounded=0;orthogonalLoop=1;jettySize=auto;html=1;exitX=0.5;exitY=1;exitDx=0;exitDy=0;entryX=0.88;entryY=0.555;entryDx=0;entryDy=0;entryPerimeter=0;" edge="1" parent="2" source="10" target="LwK9mLRY7cPpOhZQMhh7-82">
          <mxGeometry relative="1" as="geometry">
            <mxPoint x="175" y="530" as="targetPoint" />
          </mxGeometry>
        </mxCell>
        <mxCell id="LwK9mLRY7cPpOhZQMhh7-142" value="登入失败" style="fillColor=#FFFFC0;strokeColor=#FF0000;" vertex="1" parent="2">
          <mxGeometry x="180" y="840" width="110" height="50" as="geometry" />
        </mxCell>
        <mxCell id="LwK9mLRY7cPpOhZQMhh7-162" value="加密的哈希值" style="whiteSpace=wrap;html=1;strokeColor=#ff0000;fillColor=#ffffc0;" vertex="1" parent="2">
          <mxGeometry x="182.5" y="1670" width="120" height="60" as="geometry" />
        </mxCell>
        <mxCell id="LwK9mLRY7cPpOhZQMhh7-183" value="认证请求&lt;br&gt;加密的哈希值" style="whiteSpace=wrap;html=1;strokeColor=#ff0000;fillColor=#ffffc0;" vertex="1" parent="2">
          <mxGeometry x="180" y="2050" width="120" height="60" as="geometry" />
        </mxCell>
        <mxCell id="LwK9mLRY7cPpOhZQMhh7-208" value="登入成功" style="whiteSpace=wrap;html=1;strokeColor=#ff0000;fillColor=#ffffc0;" vertex="1" parent="2">
          <mxGeometry x="160" y="2670" width="120" height="60" as="geometry" />
        </mxCell>
        <mxCell id="3" value="SERVER" style="swimlane;whiteSpace=wrap;fillColor=#60a917;strokeColor=#2D7600;fontColor=#ffffff;" parent="1" vertex="1">
          <mxGeometry x="444.5" y="128" width="395.5" height="2922" as="geometry" />
        </mxCell>
        <mxCell id="13" value="" style="ellipse;shape=startState;fillColor=#000000;strokeColor=#ff0000;" parent="3" vertex="1">
          <mxGeometry x="60" y="40" width="30" height="30" as="geometry" />
        </mxCell>
        <mxCell id="14" value="" style="edgeStyle=elbowEdgeStyle;elbow=horizontal;verticalAlign=bottom;endArrow=open;endSize=8;strokeColor=#FF0000;endFill=1;rounded=0" parent="3" source="13" target="15" edge="1">
          <mxGeometry x="40" y="20" as="geometry">
            <mxPoint x="55" y="90" as="targetPoint" />
          </mxGeometry>
        </mxCell>
        <mxCell id="LwK9mLRY7cPpOhZQMhh7-153" style="edgeStyle=orthogonalEdgeStyle;rounded=0;orthogonalLoop=1;jettySize=auto;html=1;entryX=0.5;entryY=0;entryDx=0;entryDy=0;startArrow=none;startFill=0;" edge="1" parent="3" source="15" target="LwK9mLRY7cPpOhZQMhh7-154">
          <mxGeometry relative="1" as="geometry" />
        </mxCell>
        <mxCell id="15" value="获取离线授权" style="fillColor=#FFFFC0;strokeColor=#FF0000;" parent="3" vertex="1">
          <mxGeometry x="20" y="110" width="110" height="50" as="geometry" />
        </mxCell>
        <mxCell id="LwK9mLRY7cPpOhZQMhh7-48" style="edgeStyle=orthogonalEdgeStyle;rounded=0;orthogonalLoop=1;jettySize=auto;html=1;exitX=0.5;exitY=1;exitDx=0;exitDy=0;entryX=0.5;entryY=0;entryDx=0;entryDy=0;" edge="1" parent="3" source="16" target="LwK9mLRY7cPpOhZQMhh7-47">
          <mxGeometry relative="1" as="geometry" />
        </mxCell>
        <mxCell id="16" value="获取到用户名密码&#xa;加密信息" style="fillColor=#FFFFC0;strokeColor=#FF0000;" parent="3" vertex="1">
          <mxGeometry x="23" y="712" width="110" height="50" as="geometry" />
        </mxCell>
        <mxCell id="17" value="" style="endArrow=open;strokeColor=#FF0000;endFill=1;rounded=0" parent="3" source="15" target="16" edge="1">
          <mxGeometry relative="1" as="geometry" />
        </mxCell>
        <mxCell id="LwK9mLRY7cPpOhZQMhh7-47" value="用户名密码&#xa;校验" style="rhombus;fillColor=#ffffc0;strokeColor=#ff0000;" vertex="1" parent="3">
          <mxGeometry x="38" y="810" width="80" height="40" as="geometry" />
        </mxCell>
        <mxCell id="LwK9mLRY7cPpOhZQMhh7-161" style="edgeStyle=orthogonalEdgeStyle;rounded=0;orthogonalLoop=1;jettySize=auto;html=1;entryX=0.5;entryY=0;entryDx=0;entryDy=0;startArrow=none;startFill=0;" edge="1" parent="3" source="LwK9mLRY7cPpOhZQMhh7-57" target="LwK9mLRY7cPpOhZQMhh7-70">
          <mxGeometry relative="1" as="geometry" />
        </mxCell>
        <mxCell id="LwK9mLRY7cPpOhZQMhh7-57" value="服务器私钥" style="whiteSpace=wrap;html=1;strokeColor=#ff0000;fillColor=#ffffc0;" vertex="1" parent="3">
          <mxGeometry x="245.5" y="1002" width="120" height="60" as="geometry" />
        </mxCell>
        <mxCell id="LwK9mLRY7cPpOhZQMhh7-61" style="edgeStyle=orthogonalEdgeStyle;rounded=0;orthogonalLoop=1;jettySize=auto;html=1;exitX=0.5;exitY=1;exitDx=0;exitDy=0;entryX=0.5;entryY=0;entryDx=0;entryDy=0;" edge="1" parent="3" source="LwK9mLRY7cPpOhZQMhh7-49" target="LwK9mLRY7cPpOhZQMhh7-60">
          <mxGeometry relative="1" as="geometry">
            <mxPoint x="78" y="1302" as="targetPoint" />
          </mxGeometry>
        </mxCell>
        <mxCell id="LwK9mLRY7cPpOhZQMhh7-52" value="错误响应" style="whiteSpace=wrap;html=1;strokeColor=#ff0000;fillColor=#ffffc0;" vertex="1" parent="3">
          <mxGeometry x="143" y="800" width="120" height="60" as="geometry" />
        </mxCell>
        <mxCell id="LwK9mLRY7cPpOhZQMhh7-53" value="" style="edgeStyle=orthogonalEdgeStyle;rounded=0;orthogonalLoop=1;jettySize=auto;html=1;" edge="1" parent="3" source="LwK9mLRY7cPpOhZQMhh7-47" target="LwK9mLRY7cPpOhZQMhh7-52">
          <mxGeometry relative="1" as="geometry" />
        </mxCell>
        <mxCell id="LwK9mLRY7cPpOhZQMhh7-56" value="no" style="text;html=1;align=center;verticalAlign=middle;resizable=0;points=[];autosize=1;" vertex="1" parent="3">
          <mxGeometry x="128.5" y="810" width="30" height="20" as="geometry" />
        </mxCell>
        <mxCell id="LwK9mLRY7cPpOhZQMhh7-70" value="客户端公钥" style="whiteSpace=wrap;html=1;strokeColor=#ff0000;fillColor=#ffffc0;" vertex="1" parent="3">
          <mxGeometry x="255.5" y="1552" width="120" height="60" as="geometry" />
        </mxCell>
        <mxCell id="LwK9mLRY7cPpOhZQMhh7-51" value="yes" style="text;html=1;align=center;verticalAlign=middle;resizable=0;points=[];autosize=1;" vertex="1" parent="3">
          <mxGeometry x="48.5" y="892" width="30" height="20" as="geometry" />
        </mxCell>
        <mxCell id="LwK9mLRY7cPpOhZQMhh7-60" value="USB KEY&#xa;信息校验" style="rhombus;fillColor=#ffffc0;strokeColor=#ff0000;" vertex="1" parent="3">
          <mxGeometry x="38" y="1222" width="80" height="40" as="geometry" />
        </mxCell>
        <mxCell id="LwK9mLRY7cPpOhZQMhh7-144" value="" style="edgeStyle=orthogonalEdgeStyle;rounded=0;orthogonalLoop=1;jettySize=auto;html=1;entryX=0.5;entryY=0;entryDx=0;entryDy=0;" edge="1" parent="3" source="LwK9mLRY7cPpOhZQMhh7-47" target="LwK9mLRY7cPpOhZQMhh7-146">
          <mxGeometry relative="1" as="geometry">
            <mxPoint x="522.5" y="978" as="sourcePoint" />
            <mxPoint x="522.5" y="1080" as="targetPoint" />
          </mxGeometry>
        </mxCell>
        <mxCell id="LwK9mLRY7cPpOhZQMhh7-49" value="USB KEY信息" style="whiteSpace=wrap;html=1;strokeColor=#ff0000;fillColor=#ffffc0;" vertex="1" parent="3">
          <mxGeometry x="18" y="1102" width="120" height="60" as="geometry" />
        </mxCell>
        <mxCell id="LwK9mLRY7cPpOhZQMhh7-147" style="edgeStyle=orthogonalEdgeStyle;rounded=0;orthogonalLoop=1;jettySize=auto;html=1;entryX=0.5;entryY=0;entryDx=0;entryDy=0;startArrow=none;startFill=0;" edge="1" parent="3" source="LwK9mLRY7cPpOhZQMhh7-146" target="LwK9mLRY7cPpOhZQMhh7-49">
          <mxGeometry relative="1" as="geometry">
            <mxPoint x="53.98000000000002" y="1094.12" as="targetPoint" />
          </mxGeometry>
        </mxCell>
        <mxCell id="LwK9mLRY7cPpOhZQMhh7-146" value="USBKEY 加密信息" style="whiteSpace=wrap;html=1;strokeColor=#ff0000;fillColor=#ffffc0;" vertex="1" parent="3">
          <mxGeometry x="18" y="922" width="120" height="60" as="geometry" />
        </mxCell>
        <mxCell id="LwK9mLRY7cPpOhZQMhh7-67" value="yes" style="text;html=1;align=center;verticalAlign=middle;resizable=0;points=[];autosize=1;" vertex="1" parent="3">
          <mxGeometry x="48.5" y="1282" width="30" height="20" as="geometry" />
        </mxCell>
        <mxCell id="LwK9mLRY7cPpOhZQMhh7-69" value="" style="edgeStyle=orthogonalEdgeStyle;rounded=0;orthogonalLoop=1;jettySize=auto;html=1;entryX=0.5;entryY=1;entryDx=0;entryDy=0;" edge="1" parent="3" source="LwK9mLRY7cPpOhZQMhh7-60" target="LwK9mLRY7cPpOhZQMhh7-52">
          <mxGeometry relative="1" as="geometry">
            <mxPoint x="237.97058823529414" y="1292" as="targetPoint" />
          </mxGeometry>
        </mxCell>
        <mxCell id="LwK9mLRY7cPpOhZQMhh7-157" style="edgeStyle=orthogonalEdgeStyle;rounded=0;orthogonalLoop=1;jettySize=auto;html=1;entryX=0.5;entryY=0;entryDx=0;entryDy=0;startArrow=none;startFill=0;" edge="1" parent="3" source="LwK9mLRY7cPpOhZQMhh7-151" target="LwK9mLRY7cPpOhZQMhh7-156">
          <mxGeometry relative="1" as="geometry" />
        </mxCell>
        <mxCell id="LwK9mLRY7cPpOhZQMhh7-151" value="随机码、当前系统、时间、USB KEY信息组合信息" style="whiteSpace=wrap;html=1;strokeColor=#ff0000;fillColor=#ffffc0;" vertex="1" parent="3">
          <mxGeometry x="23" y="1332" width="120" height="60" as="geometry" />
        </mxCell>
        <mxCell id="LwK9mLRY7cPpOhZQMhh7-155" style="edgeStyle=orthogonalEdgeStyle;rounded=0;orthogonalLoop=1;jettySize=auto;html=1;startArrow=none;startFill=0;" edge="1" parent="3" source="LwK9mLRY7cPpOhZQMhh7-154" target="LwK9mLRY7cPpOhZQMhh7-57">
          <mxGeometry relative="1" as="geometry" />
        </mxCell>
        <mxCell id="LwK9mLRY7cPpOhZQMhh7-154" value="读取密钥" style="whiteSpace=wrap;html=1;strokeColor=#ff0000;fillColor=#ffffc0;" vertex="1" parent="3">
          <mxGeometry x="245.5" y="382" width="120" height="60" as="geometry" />
        </mxCell>
        <mxCell id="LwK9mLRY7cPpOhZQMhh7-159" style="edgeStyle=orthogonalEdgeStyle;rounded=0;orthogonalLoop=1;jettySize=auto;html=1;entryX=0.5;entryY=0;entryDx=0;entryDy=0;startArrow=none;startFill=0;" edge="1" parent="3" source="LwK9mLRY7cPpOhZQMhh7-156" target="LwK9mLRY7cPpOhZQMhh7-73">
          <mxGeometry relative="1" as="geometry" />
        </mxCell>
        <mxCell id="LwK9mLRY7cPpOhZQMhh7-156" value="生成哈希值" style="whiteSpace=wrap;html=1;strokeColor=#ff0000;fillColor=#ffffc0;" vertex="1" parent="3">
          <mxGeometry x="23" y="1472" width="120" height="58" as="geometry" />
        </mxCell>
        <mxCell id="LwK9mLRY7cPpOhZQMhh7-73" value="加密的哈希值" style="whiteSpace=wrap;html=1;strokeColor=#ff0000;fillColor=#ffffc0;" vertex="1" parent="3">
          <mxGeometry x="23" y="1672" width="120" height="60" as="geometry" />
        </mxCell>
        <mxCell id="LwK9mLRY7cPpOhZQMhh7-186" value="加密的哈希值" style="whiteSpace=wrap;html=1;strokeColor=#ff0000;fillColor=#ffffc0;" vertex="1" parent="3">
          <mxGeometry x="38" y="2052" width="120" height="60" as="geometry" />
        </mxCell>
        <mxCell id="LwK9mLRY7cPpOhZQMhh7-190" value="服务器私钥" style="whiteSpace=wrap;html=1;strokeColor=#ff0000;fillColor=#ffffc0;" vertex="1" parent="3">
          <mxGeometry x="255.5" y="2142" width="120" height="60" as="geometry" />
        </mxCell>
        <mxCell id="LwK9mLRY7cPpOhZQMhh7-191" value="" style="edgeStyle=orthogonalEdgeStyle;rounded=0;orthogonalLoop=1;jettySize=auto;html=1;startArrow=none;startFill=0;" edge="1" parent="3" source="LwK9mLRY7cPpOhZQMhh7-70" target="LwK9mLRY7cPpOhZQMhh7-190">
          <mxGeometry relative="1" as="geometry" />
        </mxCell>
        <mxCell id="LwK9mLRY7cPpOhZQMhh7-200" style="edgeStyle=orthogonalEdgeStyle;rounded=0;orthogonalLoop=1;jettySize=auto;html=1;entryX=0.5;entryY=0;entryDx=0;entryDy=0;startArrow=none;startFill=0;exitX=0.491;exitY=0.614;exitDx=0;exitDy=0;exitPerimeter=0;" edge="1" parent="3" source="LwK9mLRY7cPpOhZQMhh7-197" target="LwK9mLRY7cPpOhZQMhh7-199">
          <mxGeometry relative="1" as="geometry" />
        </mxCell>
        <mxCell id="LwK9mLRY7cPpOhZQMhh7-197" value="" style="shape=line;strokeWidth=6;strokeColor=#ff0000;rotation=90;direction=south;" vertex="1" parent="3">
          <mxGeometry x="136" y="2432" width="15" height="130" as="geometry" />
        </mxCell>
        <mxCell id="LwK9mLRY7cPpOhZQMhh7-196" style="edgeStyle=orthogonalEdgeStyle;rounded=0;orthogonalLoop=1;jettySize=auto;html=1;startArrow=none;startFill=0;entryX=0.104;entryY=0.462;entryDx=0;entryDy=0;entryPerimeter=0;" edge="1" parent="3" source="LwK9mLRY7cPpOhZQMhh7-156" target="LwK9mLRY7cPpOhZQMhh7-197">
          <mxGeometry relative="1" as="geometry">
            <mxPoint x="195.49999999999955" y="2492" as="targetPoint" />
            <Array as="points">
              <mxPoint x="195" y="1501" />
            </Array>
          </mxGeometry>
        </mxCell>
        <mxCell id="LwK9mLRY7cPpOhZQMhh7-205" style="edgeStyle=orthogonalEdgeStyle;rounded=0;orthogonalLoop=1;jettySize=auto;html=1;entryX=0.75;entryY=1;entryDx=0;entryDy=0;startArrow=none;startFill=0;exitX=1;exitY=0.5;exitDx=0;exitDy=0;" edge="1" parent="3" source="LwK9mLRY7cPpOhZQMhh7-199" target="LwK9mLRY7cPpOhZQMhh7-52">
          <mxGeometry relative="1" as="geometry" />
        </mxCell>
        <mxCell id="LwK9mLRY7cPpOhZQMhh7-199" value="哈希值比对" style="rhombus;fillColor=#ffffc0;strokeColor=#ff0000;" vertex="1" parent="3">
          <mxGeometry x="103.5" y="2562" width="80" height="40" as="geometry" />
        </mxCell>
        <mxCell id="20" value="" style="endArrow=open;strokeColor=#FF0000;endFill=1;rounded=0;exitX=1;exitY=0.5;exitDx=0;exitDy=0;entryX=0;entryY=0.5;entryDx=0;entryDy=0;" parent="1" source="LwK9mLRY7cPpOhZQMhh7-93" target="16" edge="1">
          <mxGeometry relative="1" as="geometry">
            <mxPoint x="460" y="536" as="targetPoint" />
          </mxGeometry>
        </mxCell>
        <mxCell id="LwK9mLRY7cPpOhZQMhh7-46" value="https 发送数据 Request" style="edgeLabel;html=1;align=center;verticalAlign=middle;resizable=0;points=[];" vertex="1" connectable="0" parent="20">
          <mxGeometry x="-0.265" relative="1" as="geometry">
            <mxPoint x="83.63" as="offset" />
          </mxGeometry>
        </mxCell>
        <mxCell id="LwK9mLRY7cPpOhZQMhh7-62" style="edgeStyle=orthogonalEdgeStyle;rounded=0;orthogonalLoop=1;jettySize=auto;html=1;exitX=0.5;exitY=1;exitDx=0;exitDy=0;" edge="1" parent="1" source="LwK9mLRY7cPpOhZQMhh7-52">
          <mxGeometry relative="1" as="geometry">
            <mxPoint x="210" y="998" as="targetPoint" />
            <Array as="points">
              <mxPoint x="648" y="998" />
            </Array>
          </mxGeometry>
        </mxCell>
        <mxCell id="LwK9mLRY7cPpOhZQMhh7-63" value="https 登入失败 Response" style="edgeLabel;html=1;align=center;verticalAlign=middle;resizable=0;points=[];" vertex="1" connectable="0" parent="LwK9mLRY7cPpOhZQMhh7-62">
          <mxGeometry x="-0.3441" y="-2" relative="1" as="geometry">
            <mxPoint x="-117.59" y="-1.06" as="offset" />
          </mxGeometry>
        </mxCell>
        <mxCell id="LwK9mLRY7cPpOhZQMhh7-71" style="edgeStyle=orthogonalEdgeStyle;rounded=0;orthogonalLoop=1;jettySize=auto;html=1;exitX=0;exitY=0.5;exitDx=0;exitDy=0;" edge="1" parent="1" source="LwK9mLRY7cPpOhZQMhh7-70">
          <mxGeometry relative="1" as="geometry">
            <mxPoint x="530" y="1710" as="targetPoint" />
          </mxGeometry>
        </mxCell>
        <mxCell id="LwK9mLRY7cPpOhZQMhh7-74" value="" style="edgeStyle=orthogonalEdgeStyle;rounded=0;orthogonalLoop=1;jettySize=auto;html=1;exitX=0.5;exitY=1;exitDx=0;exitDy=0;" edge="1" parent="1" source="LwK9mLRY7cPpOhZQMhh7-60">
          <mxGeometry relative="1" as="geometry">
            <mxPoint x="490" y="1440" as="sourcePoint" />
            <mxPoint x="523" y="1460" as="targetPoint" />
          </mxGeometry>
        </mxCell>
        <mxCell id="LwK9mLRY7cPpOhZQMhh7-81" value="启动服务" style="text;html=1;align=center;verticalAlign=middle;resizable=0;points=[];autosize=1;" vertex="1" parent="1">
          <mxGeometry x="530" y="170" width="60" height="20" as="geometry" />
        </mxCell>
        <mxCell id="LwK9mLRY7cPpOhZQMhh7-89" style="edgeStyle=orthogonalEdgeStyle;rounded=0;orthogonalLoop=1;jettySize=auto;html=1;" edge="1" parent="1" source="LwK9mLRY7cPpOhZQMhh7-41">
          <mxGeometry relative="1" as="geometry">
            <mxPoint x="-440" y="452" as="targetPoint" />
          </mxGeometry>
        </mxCell>
        <mxCell id="LwK9mLRY7cPpOhZQMhh7-94" value="Local SERVICE" style="swimlane;whiteSpace=wrap;fillColor=#e1d5e7;strokeColor=#9673a6;" vertex="1" parent="1">
          <mxGeometry x="-520" y="130" width="335.5" height="2930" as="geometry" />
        </mxCell>
        <mxCell id="LwK9mLRY7cPpOhZQMhh7-95" value="" style="ellipse;shape=startState;fillColor=#000000;strokeColor=#ff0000;" vertex="1" parent="LwK9mLRY7cPpOhZQMhh7-94">
          <mxGeometry x="60" y="40" width="30" height="30" as="geometry" />
        </mxCell>
        <mxCell id="LwK9mLRY7cPpOhZQMhh7-96" value="" style="edgeStyle=elbowEdgeStyle;elbow=horizontal;verticalAlign=bottom;endArrow=open;endSize=8;strokeColor=#FF0000;endFill=1;rounded=0" edge="1" parent="LwK9mLRY7cPpOhZQMhh7-94" source="LwK9mLRY7cPpOhZQMhh7-95" target="LwK9mLRY7cPpOhZQMhh7-97">
          <mxGeometry x="40" y="20" as="geometry">
            <mxPoint x="55" y="90" as="targetPoint" />
          </mxGeometry>
        </mxCell>
        <mxCell id="LwK9mLRY7cPpOhZQMhh7-132" style="edgeStyle=orthogonalEdgeStyle;rounded=0;orthogonalLoop=1;jettySize=auto;html=1;entryX=0.5;entryY=0;entryDx=0;entryDy=0;" edge="1" parent="LwK9mLRY7cPpOhZQMhh7-94" source="LwK9mLRY7cPpOhZQMhh7-97" target="LwK9mLRY7cPpOhZQMhh7-139">
          <mxGeometry relative="1" as="geometry" />
        </mxCell>
        <mxCell id="LwK9mLRY7cPpOhZQMhh7-97" value="获取USB KEY授权" style="fillColor=#FFFFC0;strokeColor=#FF0000;" vertex="1" parent="LwK9mLRY7cPpOhZQMhh7-94">
          <mxGeometry x="20" y="100" width="110" height="50" as="geometry" />
        </mxCell>
        <mxCell id="LwK9mLRY7cPpOhZQMhh7-100" value="" style="endArrow=open;strokeColor=#FF0000;endFill=1;rounded=0;entryX=0.5;entryY=0;entryDx=0;entryDy=0;" edge="1" parent="LwK9mLRY7cPpOhZQMhh7-94" source="LwK9mLRY7cPpOhZQMhh7-97" target="LwK9mLRY7cPpOhZQMhh7-131">
          <mxGeometry relative="1" as="geometry" />
        </mxCell>
        <mxCell id="LwK9mLRY7cPpOhZQMhh7-122" value="启动服务(监听127.0.0.1)" style="text;html=1;align=center;verticalAlign=middle;resizable=0;points=[];autosize=1;" vertex="1" parent="LwK9mLRY7cPpOhZQMhh7-94">
          <mxGeometry x="110" y="45" width="150" height="20" as="geometry" />
        </mxCell>
        <mxCell id="LwK9mLRY7cPpOhZQMhh7-41" value="服务器公钥" style="fillColor=#FFFFC0;strokeColor=#FF0000;" vertex="1" parent="LwK9mLRY7cPpOhZQMhh7-94">
          <mxGeometry x="155" y="297" width="110" height="50" as="geometry" />
        </mxCell>
        <mxCell id="LwK9mLRY7cPpOhZQMhh7-90" value="加密" style="text;html=1;align=center;verticalAlign=middle;resizable=0;points=[];autosize=1;" vertex="1" parent="LwK9mLRY7cPpOhZQMhh7-94">
          <mxGeometry x="95" y="312" width="40" height="20" as="geometry" />
        </mxCell>
        <mxCell id="LwK9mLRY7cPpOhZQMhh7-131" value="读取USB KEY信息" style="fillColor=#FFFFC0;strokeColor=#FF0000;" vertex="1" parent="LwK9mLRY7cPpOhZQMhh7-94">
          <mxGeometry x="20" y="220" width="110" height="50" as="geometry" />
        </mxCell>
        <mxCell id="LwK9mLRY7cPpOhZQMhh7-134" value="加密的USB KEY信息" style="fillColor=#FFFFC0;strokeColor=#FF0000;" vertex="1" parent="LwK9mLRY7cPpOhZQMhh7-94">
          <mxGeometry x="20" y="362" width="110" height="50" as="geometry" />
        </mxCell>
        <mxCell id="LwK9mLRY7cPpOhZQMhh7-140" style="edgeStyle=orthogonalEdgeStyle;rounded=0;orthogonalLoop=1;jettySize=auto;html=1;entryX=0.5;entryY=0;entryDx=0;entryDy=0;startArrow=none;startFill=0;" edge="1" parent="LwK9mLRY7cPpOhZQMhh7-94" source="LwK9mLRY7cPpOhZQMhh7-139" target="LwK9mLRY7cPpOhZQMhh7-41">
          <mxGeometry relative="1" as="geometry" />
        </mxCell>
        <mxCell id="LwK9mLRY7cPpOhZQMhh7-139" value="读取密钥" style="fillColor=#FFFFC0;strokeColor=#FF0000;" vertex="1" parent="LwK9mLRY7cPpOhZQMhh7-94">
          <mxGeometry x="155" y="180" width="110" height="50" as="geometry" />
        </mxCell>
        <mxCell id="LwK9mLRY7cPpOhZQMhh7-165" value="加密的哈希值" style="whiteSpace=wrap;html=1;strokeColor=#ff0000;fillColor=#ffffc0;" vertex="1" parent="LwK9mLRY7cPpOhZQMhh7-94">
          <mxGeometry x="30" y="1670" width="120" height="60" as="geometry" />
        </mxCell>
        <mxCell id="LwK9mLRY7cPpOhZQMhh7-177" style="edgeStyle=orthogonalEdgeStyle;rounded=0;orthogonalLoop=1;jettySize=auto;html=1;entryX=0.5;entryY=0;entryDx=0;entryDy=0;startArrow=none;startFill=0;" edge="1" parent="LwK9mLRY7cPpOhZQMhh7-94" source="LwK9mLRY7cPpOhZQMhh7-168" target="LwK9mLRY7cPpOhZQMhh7-176">
          <mxGeometry relative="1" as="geometry" />
        </mxCell>
        <mxCell id="LwK9mLRY7cPpOhZQMhh7-168" value="客户端私钥" style="whiteSpace=wrap;html=1;strokeColor=#ff0000;fillColor=#ffffc0;" vertex="1" parent="LwK9mLRY7cPpOhZQMhh7-94">
          <mxGeometry x="150" y="1740" width="120" height="60" as="geometry" />
        </mxCell>
        <mxCell id="LwK9mLRY7cPpOhZQMhh7-167" style="edgeStyle=orthogonalEdgeStyle;rounded=0;orthogonalLoop=1;jettySize=auto;html=1;startArrow=none;startFill=0;entryX=0.5;entryY=0;entryDx=0;entryDy=0;" edge="1" parent="LwK9mLRY7cPpOhZQMhh7-94" source="LwK9mLRY7cPpOhZQMhh7-41" target="LwK9mLRY7cPpOhZQMhh7-168">
          <mxGeometry relative="1" as="geometry">
            <mxPoint x="205" y="1590" as="targetPoint" />
          </mxGeometry>
        </mxCell>
        <mxCell id="LwK9mLRY7cPpOhZQMhh7-176" value="服务器公钥" style="whiteSpace=wrap;html=1;strokeColor=#ff0000;fillColor=#ffffc0;" vertex="1" parent="LwK9mLRY7cPpOhZQMhh7-94">
          <mxGeometry x="150" y="1935" width="120" height="60" as="geometry" />
        </mxCell>
        <mxCell id="LwK9mLRY7cPpOhZQMhh7-178" value="加密的哈希值" style="whiteSpace=wrap;html=1;strokeColor=#ff0000;fillColor=#ffffc0;" vertex="1" parent="LwK9mLRY7cPpOhZQMhh7-94">
          <mxGeometry x="30" y="2050" width="120" height="60" as="geometry" />
        </mxCell>
        <mxCell id="LwK9mLRY7cPpOhZQMhh7-88" value="WSS" style="text;html=1;align=center;verticalAlign=middle;resizable=0;points=[];autosize=1;" vertex="1" parent="1">
          <mxGeometry x="-155" y="265" width="40" height="20" as="geometry" />
        </mxCell>
        <mxCell id="LwK9mLRY7cPpOhZQMhh7-127" style="edgeStyle=orthogonalEdgeStyle;rounded=0;orthogonalLoop=1;jettySize=auto;html=1;entryX=1;entryY=0.5;entryDx=0;entryDy=0;" edge="1" parent="1" source="8" target="LwK9mLRY7cPpOhZQMhh7-131">
          <mxGeometry relative="1" as="geometry">
            <mxPoint x="-450" y="395" as="targetPoint" />
          </mxGeometry>
        </mxCell>
        <mxCell id="LwK9mLRY7cPpOhZQMhh7-128" value="WSS" style="text;html=1;align=center;verticalAlign=middle;resizable=0;points=[];autosize=1;" vertex="1" parent="1">
          <mxGeometry x="-160" y="370" width="40" height="20" as="geometry" />
        </mxCell>
        <mxCell id="LwK9mLRY7cPpOhZQMhh7-129" value="" style="endArrow=classic;html=1;entryX=0;entryY=0.5;entryDx=0;entryDy=0;exitX=1;exitY=0.5;exitDx=0;exitDy=0;" edge="1" parent="1" source="LwK9mLRY7cPpOhZQMhh7-134" target="10">
          <mxGeometry width="50" height="50" relative="1" as="geometry">
            <mxPoint x="-450" y="540" as="sourcePoint" />
            <mxPoint y="480" as="targetPoint" />
          </mxGeometry>
        </mxCell>
        <mxCell id="LwK9mLRY7cPpOhZQMhh7-130" value="WSS" style="text;html=1;align=center;verticalAlign=middle;resizable=0;points=[];autosize=1;" vertex="1" parent="1">
          <mxGeometry x="-150" y="520" width="40" height="20" as="geometry" />
        </mxCell>
        <mxCell id="LwK9mLRY7cPpOhZQMhh7-133" style="edgeStyle=orthogonalEdgeStyle;rounded=0;orthogonalLoop=1;jettySize=auto;html=1;" edge="1" parent="1" source="LwK9mLRY7cPpOhZQMhh7-131">
          <mxGeometry relative="1" as="geometry">
            <mxPoint x="-445" y="490" as="targetPoint" />
          </mxGeometry>
        </mxCell>
        <mxCell id="LwK9mLRY7cPpOhZQMhh7-148" style="edgeStyle=orthogonalEdgeStyle;rounded=0;orthogonalLoop=1;jettySize=auto;html=1;startArrow=none;startFill=0;" edge="1" parent="1" source="LwK9mLRY7cPpOhZQMhh7-57">
          <mxGeometry relative="1" as="geometry">
            <mxPoint x="520" y="1160" as="targetPoint" />
          </mxGeometry>
        </mxCell>
        <mxCell id="LwK9mLRY7cPpOhZQMhh7-149" value="解密" style="text;html=1;align=center;verticalAlign=middle;resizable=0;points=[];autosize=1;" vertex="1" parent="1">
          <mxGeometry x="540" y="1130" width="40" height="20" as="geometry" />
        </mxCell>
        <mxCell id="LwK9mLRY7cPpOhZQMhh7-150" value="no" style="text;html=1;align=center;verticalAlign=middle;resizable=0;points=[];autosize=1;" vertex="1" parent="1">
          <mxGeometry x="615" y="1350" width="30" height="20" as="geometry" />
        </mxCell>
        <mxCell id="LwK9mLRY7cPpOhZQMhh7-160" value="加密" style="text;html=1;align=center;verticalAlign=middle;resizable=0;points=[];autosize=1;" vertex="1" parent="1">
          <mxGeometry x="600" y="1690" width="40" height="20" as="geometry" />
        </mxCell>
        <mxCell id="LwK9mLRY7cPpOhZQMhh7-163" value="" style="edgeStyle=orthogonalEdgeStyle;rounded=0;orthogonalLoop=1;jettySize=auto;html=1;startArrow=none;startFill=0;" edge="1" parent="1" source="LwK9mLRY7cPpOhZQMhh7-73" target="LwK9mLRY7cPpOhZQMhh7-162">
          <mxGeometry relative="1" as="geometry" />
        </mxCell>
        <mxCell id="LwK9mLRY7cPpOhZQMhh7-164" value="https Response" style="text;html=1;align=center;verticalAlign=middle;resizable=0;points=[];autosize=1;" vertex="1" parent="1">
          <mxGeometry x="360" y="1810" width="100" height="20" as="geometry" />
        </mxCell>
        <mxCell id="LwK9mLRY7cPpOhZQMhh7-166" value="" style="edgeStyle=orthogonalEdgeStyle;rounded=0;orthogonalLoop=1;jettySize=auto;html=1;startArrow=none;startFill=0;" edge="1" parent="1" source="LwK9mLRY7cPpOhZQMhh7-162" target="LwK9mLRY7cPpOhZQMhh7-165">
          <mxGeometry relative="1" as="geometry" />
        </mxCell>
        <mxCell id="LwK9mLRY7cPpOhZQMhh7-170" value="Text" style="text;html=1;align=center;verticalAlign=middle;resizable=0;points=[];autosize=1;" vertex="1" parent="1">
          <mxGeometry x="-440" y="1780" width="40" height="20" as="geometry" />
        </mxCell>
        <mxCell id="LwK9mLRY7cPpOhZQMhh7-179" style="edgeStyle=orthogonalEdgeStyle;rounded=0;orthogonalLoop=1;jettySize=auto;html=1;entryX=0.5;entryY=0;entryDx=0;entryDy=0;startArrow=none;startFill=0;" edge="1" parent="1" source="LwK9mLRY7cPpOhZQMhh7-171" target="LwK9mLRY7cPpOhZQMhh7-178">
          <mxGeometry relative="1" as="geometry" />
        </mxCell>
        <mxCell id="LwK9mLRY7cPpOhZQMhh7-171" value="哈希值" style="whiteSpace=wrap;html=1;strokeColor=#ff0000;fillColor=#ffffc0;" vertex="1" parent="1">
          <mxGeometry x="-490" y="1940" width="120" height="60" as="geometry" />
        </mxCell>
        <mxCell id="LwK9mLRY7cPpOhZQMhh7-172" value="" style="edgeStyle=orthogonalEdgeStyle;curved=1;rounded=0;orthogonalLoop=1;jettySize=auto;html=1;startArrow=none;startFill=0;" edge="1" parent="1" source="LwK9mLRY7cPpOhZQMhh7-165" target="LwK9mLRY7cPpOhZQMhh7-171">
          <mxGeometry relative="1" as="geometry" />
        </mxCell>
        <mxCell id="LwK9mLRY7cPpOhZQMhh7-174" style="edgeStyle=orthogonalEdgeStyle;curved=1;rounded=0;orthogonalLoop=1;jettySize=auto;html=1;startArrow=none;startFill=0;" edge="1" parent="1" source="LwK9mLRY7cPpOhZQMhh7-168">
          <mxGeometry relative="1" as="geometry">
            <mxPoint x="-430" y="1900" as="targetPoint" />
          </mxGeometry>
        </mxCell>
        <mxCell id="LwK9mLRY7cPpOhZQMhh7-175" value="解密" style="text;html=1;align=center;verticalAlign=middle;resizable=0;points=[];autosize=1;" vertex="1" parent="1">
          <mxGeometry x="-420" y="1880" width="40" height="20" as="geometry" />
        </mxCell>
        <mxCell id="LwK9mLRY7cPpOhZQMhh7-180" style="edgeStyle=orthogonalEdgeStyle;rounded=0;orthogonalLoop=1;jettySize=auto;html=1;exitX=0;exitY=0.5;exitDx=0;exitDy=0;startArrow=none;startFill=0;" edge="1" parent="1" source="LwK9mLRY7cPpOhZQMhh7-176">
          <mxGeometry relative="1" as="geometry">
            <mxPoint x="-430" y="2095" as="targetPoint" />
          </mxGeometry>
        </mxCell>
        <mxCell id="LwK9mLRY7cPpOhZQMhh7-181" value="加密" style="text;html=1;align=center;verticalAlign=middle;resizable=0;points=[];autosize=1;" vertex="1" parent="1">
          <mxGeometry x="-430" y="2070" width="40" height="20" as="geometry" />
        </mxCell>
        <mxCell id="LwK9mLRY7cPpOhZQMhh7-182" value="WSS" style="text;html=1;align=center;verticalAlign=middle;resizable=0;points=[];autosize=1;" vertex="1" parent="1">
          <mxGeometry x="-120" y="1810" width="40" height="20" as="geometry" />
        </mxCell>
        <mxCell id="LwK9mLRY7cPpOhZQMhh7-184" value="" style="edgeStyle=orthogonalEdgeStyle;rounded=0;orthogonalLoop=1;jettySize=auto;html=1;startArrow=none;startFill=0;" edge="1" parent="1" source="LwK9mLRY7cPpOhZQMhh7-178" target="LwK9mLRY7cPpOhZQMhh7-183">
          <mxGeometry relative="1" as="geometry" />
        </mxCell>
        <mxCell id="LwK9mLRY7cPpOhZQMhh7-185" value="WSS" style="text;html=1;align=center;verticalAlign=middle;resizable=0;points=[];autosize=1;" vertex="1" parent="1">
          <mxGeometry x="-150" y="2180" width="40" height="20" as="geometry" />
        </mxCell>
        <mxCell id="LwK9mLRY7cPpOhZQMhh7-187" value="" style="edgeStyle=orthogonalEdgeStyle;rounded=0;orthogonalLoop=1;jettySize=auto;html=1;startArrow=none;startFill=0;" edge="1" parent="1" source="LwK9mLRY7cPpOhZQMhh7-183" target="LwK9mLRY7cPpOhZQMhh7-186">
          <mxGeometry relative="1" as="geometry" />
        </mxCell>
        <mxCell id="LwK9mLRY7cPpOhZQMhh7-188" value="https Request" style="text;html=1;align=center;verticalAlign=middle;resizable=0;points=[];autosize=1;" vertex="1" parent="1">
          <mxGeometry x="315" y="2190" width="90" height="20" as="geometry" />
        </mxCell>
        <mxCell id="LwK9mLRY7cPpOhZQMhh7-198" style="edgeStyle=orthogonalEdgeStyle;rounded=0;orthogonalLoop=1;jettySize=auto;html=1;entryX=0.86;entryY=0.462;entryDx=0;entryDy=0;entryPerimeter=0;startArrow=none;startFill=0;" edge="1" parent="1" source="LwK9mLRY7cPpOhZQMhh7-192" target="LwK9mLRY7cPpOhZQMhh7-197">
          <mxGeometry relative="1" as="geometry" />
        </mxCell>
        <mxCell id="LwK9mLRY7cPpOhZQMhh7-192" value="哈希值" style="whiteSpace=wrap;html=1;strokeColor=#ff0000;fillColor=#ffffc0;" vertex="1" parent="1">
          <mxGeometry x="482.5" y="2440" width="120" height="60" as="geometry" />
        </mxCell>
        <mxCell id="LwK9mLRY7cPpOhZQMhh7-193" value="" style="edgeStyle=orthogonalEdgeStyle;rounded=0;orthogonalLoop=1;jettySize=auto;html=1;startArrow=none;startFill=0;" edge="1" parent="1" source="LwK9mLRY7cPpOhZQMhh7-186" target="LwK9mLRY7cPpOhZQMhh7-192">
          <mxGeometry relative="1" as="geometry" />
        </mxCell>
        <mxCell id="LwK9mLRY7cPpOhZQMhh7-194" style="edgeStyle=orthogonalEdgeStyle;rounded=0;orthogonalLoop=1;jettySize=auto;html=1;startArrow=none;startFill=0;" edge="1" parent="1" source="LwK9mLRY7cPpOhZQMhh7-190">
          <mxGeometry relative="1" as="geometry">
            <mxPoint x="549.9999999999995" y="2300" as="targetPoint" />
          </mxGeometry>
        </mxCell>
        <mxCell id="LwK9mLRY7cPpOhZQMhh7-195" value="解密" style="text;html=1;align=center;verticalAlign=middle;resizable=0;points=[];autosize=1;" vertex="1" parent="1">
          <mxGeometry x="590" y="2270" width="40" height="20" as="geometry" />
        </mxCell>
        <mxCell id="LwK9mLRY7cPpOhZQMhh7-209" style="edgeStyle=orthogonalEdgeStyle;rounded=0;orthogonalLoop=1;jettySize=auto;html=1;entryX=1;entryY=0.5;entryDx=0;entryDy=0;startArrow=none;startFill=0;" edge="1" parent="1" source="LwK9mLRY7cPpOhZQMhh7-201" target="LwK9mLRY7cPpOhZQMhh7-208">
          <mxGeometry relative="1" as="geometry" />
        </mxCell>
        <mxCell id="LwK9mLRY7cPpOhZQMhh7-201" value="允许登入操作" style="whiteSpace=wrap;html=1;strokeColor=#ff0000;fillColor=#ffffc0;" vertex="1" parent="1">
          <mxGeometry x="528" y="2800" width="120" height="60" as="geometry" />
        </mxCell>
        <mxCell id="LwK9mLRY7cPpOhZQMhh7-202" value="" style="edgeStyle=orthogonalEdgeStyle;rounded=0;orthogonalLoop=1;jettySize=auto;html=1;startArrow=none;startFill=0;" edge="1" parent="1" source="LwK9mLRY7cPpOhZQMhh7-199" target="LwK9mLRY7cPpOhZQMhh7-201">
          <mxGeometry relative="1" as="geometry" />
        </mxCell>
        <mxCell id="LwK9mLRY7cPpOhZQMhh7-203" value="一致" style="text;html=1;align=center;verticalAlign=middle;resizable=0;points=[];autosize=1;" vertex="1" parent="1">
          <mxGeometry x="540" y="2750" width="40" height="20" as="geometry" />
        </mxCell>
        <mxCell id="LwK9mLRY7cPpOhZQMhh7-207" value="不一致" style="text;html=1;align=center;verticalAlign=middle;resizable=0;points=[];autosize=1;" vertex="1" parent="1">
          <mxGeometry x="625" y="2690" width="50" height="20" as="geometry" />
        </mxCell>
        <mxCell id="LwK9mLRY7cPpOhZQMhh7-210" value="https Response" style="text;html=1;align=center;verticalAlign=middle;resizable=0;points=[];autosize=1;" vertex="1" parent="1">
          <mxGeometry x="310" y="2800" width="100" height="20" as="geometry" />
        </mxCell>
      </root>
    </mxGraphModel>
  </diagram>
</mxfile>
